<svg xmlns="http://www.w3.org/2000/svg" width="178" height="63" viewBox="0 0 178 63"><title>Group 8</title><g fill="none" fill-rule="nonzero"><path fill="#000" d="M19.8701103,1.01089204e-15 L152.12989,2.61644452e-15 C159.03916,-1.52022961e-15 161.544628,0.719398486 164.070554,2.07027845 C166.59648,3.42115842 168.578842,5.40351987 169.929722,7.9294458 C171.280602,10.4553717 172,12.9608401 172,19.8701103 L172,38.1298897 C172,45.0391599 171.280602,47.5446283 169.929722,50.0705542 C168.578842,52.5964801 166.59648,54.5788416 164.070554,55.9297215 C161.544628,57.2806015 159.03916,58 152.12989,58 L19.8701103,58 C12.9608401,58 10.4553717,57.2806015 7.9294458,55.9297215 C5.40351987,54.5788416 3.42115842,52.5964801 2.07027845,50.0705542 C0.719398486,47.5446283 3.10957409e-16,45.0391599 -5.35184159e-16,38.1298897 L2.34885244e-15,19.8701103 C-1.36475091e-15,12.9608401 0.719398486,10.4553717 2.07027845,7.9294458 C3.42115842,5.40351987 5.40351987,3.42115842 7.9294458,2.07027845 C10.4553717,0.719398486 12.9608401,-5.87357387e-16 19.8701103,1.01089204e-15 Z" transform="translate(-386.000000, -278.000000) translate(284.000000, 136.000000) translate(102.500000, 142.000000) translate(2.500000, 2.500000)"/><path fill="#FFF" d="M74.008799,29.7557665 C77.3207263,29.7557809 79.5039107,32.3738323 79.5039107,36.4177589 C79.5039107,40.4729423 77.3334533,43.0783244 74.058064,43.0783244 C72.3650439,43.166887 70.7703115,42.2801252 69.9522174,40.7952406 L69.8902398,40.7952406 L69.8902398,47.2587603 L67.2116521,47.2587603 L67.2116521,29.8923047 L69.8044223,29.8923047 L69.8044223,32.0627621 L69.8536874,32.0627621 C70.7081262,30.5871865 72.3045782,29.7008065 74.008799,29.7557665 Z M88.371486,29.7557809 C91.6835142,29.7557809 93.866641,32.3738323 93.866641,36.4177589 C93.866641,40.4729423 91.6961836,43.0783244 88.4207943,43.0783244 C86.7277742,43.166887 85.1330418,42.2801252 84.3149477,40.7952406 L84.2529701,40.7952406 L84.2529701,47.2587603 L81.5743823,47.2587603 L81.5743823,29.8923047 L84.167095,29.8923047 L84.167095,32.0627621 L84.21636,32.0627621 C85.070805,30.5871874 86.6672632,29.7008126 88.371486,29.7557809 Z M107.60161,24.7447867 C111.383688,24.7447867 113.976444,26.8659791 114.063717,29.954167 L111.359762,29.954167 C111.197899,28.1679711 109.721361,27.0897905 107.563573,27.0897905 C105.405785,27.0897905 103.929261,28.1806549 103.929261,29.7683782 C103.929261,31.0337745 104.87233,31.7783712 107.179311,32.3483782 L109.151296,32.8325822 C112.823616,33.7010477 114.34942,35.1762023 114.34942,37.7942249 C114.34942,41.1428055 111.682089,43.2400716 107.439704,43.2400716 C103.470381,43.2400716 100.790395,41.1920705 100.617261,37.954675 L103.359225,37.9548047 C103.557698,39.7297438 105.281974,40.8951399 107.638205,40.8951399 C109.895936,40.8951399 111.520255,39.7296861 111.520255,38.129279 C111.520255,36.7400139 110.54059,35.9081728 108.220939,35.3380937 L105.901289,34.7792859 C102.614643,33.9854242 101.088839,32.448364 101.088839,29.954167 C101.088839,26.8659791 103.780096,24.7447867 107.60161,24.7447867 Z M151.928474,29.7318402 C155.53886,29.7318402 157.80926,32.2119553 157.80926,36.1686087 L157.80926,37.0863392 L148.592563,37.0863392 L148.592563,37.2482018 C148.506511,38.2197111 148.841975,39.1813705 149.513623,39.888565 C150.185271,40.5957596 151.128368,40.9803279 152.103021,40.9444482 C153.402883,41.0662409 154.628398,40.3198254 155.116605,39.1089872 L157.660053,39.1090016 C157.299717,41.4779172 154.992722,43.1036487 152.041072,43.1036487 C148.244883,43.1036487 145.888637,40.5601867 145.888637,36.4796789 C145.888637,32.3865017 148.257552,29.7318402 151.928474,29.7318402 Z M130.23804,29.7318546 C134.021559,29.7318546 136.428483,32.3118546 136.428483,36.4177589 C136.428483,40.5348768 134.034229,43.1036631 130.23804,43.1036631 C126.443191,43.1036631 124.048994,40.5348623 124.048994,36.4177589 C124.048994,32.3119123 126.467175,29.7318546 130.23804,29.7318546 Z M120.130292,26.8041168 L120.130292,29.8923047 L122.611819,29.8923047 L122.611819,32.0134971 L120.130292,32.0134971 L120.130292,39.2075316 C120.130292,40.3251328 120.627165,40.8459325 121.718015,40.8459325 C122.012613,40.8407955 122.306734,40.8201075 122.59915,40.7839549 L122.59915,42.8924779 C122.108702,42.9841177 121.610204,43.025621 121.111355,43.0163467 C118.469377,43.0163467 117.439034,42.0240124 117.439034,39.4932198 L117.439034,32.0134971 L115.541653,32.0134971 L115.541653,29.8923047 L117.439006,29.8923047 L117.439006,26.8041168 L120.130292,26.8041168 Z M59.0858484,25.0432307 L65.5479556,42.9418006 L62.6089609,42.9418006 L60.9719869,38.1040123 L54.1495445,38.1040123 L52.5111436,42.9418006 L49.6214283,42.9418006 L56.0835355,25.0432307 L59.0858484,25.0432307 Z M144.392439,29.7557521 C144.701122,29.7546743 145.008954,29.7881977 145.310169,29.8556946 L145.310169,32.3611485 C144.920475,32.2420697 144.513957,32.1873967 144.106649,32.1992859 C143.31917,32.1673392 142.557065,32.4811758 142.020441,33.0583913 C141.483816,33.6356068 141.226284,34.4185338 141.315464,35.2015988 L141.315464,42.9417717 L138.636877,42.9417717 L138.636877,29.8923047 L141.19161,29.8923047 L141.19161,32.1134108 L141.253587,32.1134108 C141.609852,30.6835841 142.919968,29.6995276 144.392439,29.7557521 Z M27.3442237,20.6005428 C28.5775934,20.6005428 30.9240241,18.8981896 33.3443812,19.1522403 C35.6449226,19.2242185 37.7768394,20.3767642 39.0970029,22.2621925 C37.0138085,23.5429191 35.7319003,25.8015333 35.7003969,28.2467259 C35.7033707,31.0131696 37.3600958,33.5097836 39.9080165,34.5874291 C39.4179948,36.1792832 38.6793544,37.6836448 37.7194559,39.0447898 C36.4303495,40.9731597 35.0787322,42.8571074 32.9334694,42.8919302 C30.8489879,42.9400421 30.1484531,41.665205 27.7576146,41.665205 C25.3443778,41.665205 24.5977056,42.8571218 22.5984794,42.9400421 C20.5554509,43.0157125 18.9940753,40.8818796 17.6580965,38.9715985 C14.9878542,35.0704512 12.9085904,27.9775411 15.6961435,23.1513268 C17.0051363,20.7990954 19.4526253,19.3064615 22.1431455,19.2195365 C24.1880189,19.1774638 26.0869854,20.6005428 27.3442237,20.6005428 Z M130.238025,31.9389077 C128.067568,31.9389077 126.778245,33.6139042 126.778245,36.4177589 C126.778245,39.2455398 128.067568,40.895212 130.238025,40.895212 C132.408483,40.895212 133.699218,39.2455398 133.699218,36.4177589 C133.699218,33.6012349 132.408483,31.9389077 130.238025,31.9389077 Z M73.3021961,32.0388359 C71.2556075,32.0388359 69.8790117,33.8123625 69.8790117,36.4177589 C69.8790117,39.0470816 71.2556075,40.8079388 73.3021961,40.8079388 C75.3853947,40.8079388 76.7507192,39.0836772 76.7507192,36.4177589 C76.7507192,33.7757812 75.3853803,32.0388359 73.3021961,32.0388359 Z M87.6649264,32.0388359 C85.6183378,32.0388359 84.241742,33.8123625 84.241742,36.4177589 C84.241742,39.0470816 85.6183378,40.8079388 87.6649264,40.8079388 C89.748125,40.8079388 91.1134639,39.0836772 91.1134639,36.4177589 C91.1134639,33.7757812 89.7481106,32.0388359 87.6649264,32.0388359 Z M57.5981253,28.020248 L57.5235215,28.020248 L54.856133,35.8716204 L60.2640436,35.8716204 L57.5981253,28.020248 Z M151.928474,31.9022977 C151.047443,31.89704 150.200812,32.2439309 149.576762,32.8658675 C148.952712,33.487804 148.60295,34.3332528 148.605207,35.214297 L155.12926,35.214297 C155.17787,34.3413165 154.860099,33.4876472 154.252507,32.8589466 C153.644915,32.2302459 152.802591,31.8835176 151.928474,31.9022977 Z M148.178725,13.5554708 C149.984625,13.5554708 151.074076,14.7892585 151.074076,16.8273144 L151.074076,17.2742598 L146.49106,17.2742598 L146.49106,17.3460385 C146.450503,17.8276484 146.614987,18.3040225 146.94406,18.6580056 C147.273132,19.0119887 147.73626,19.2107356 148.219544,19.2053682 C148.846199,19.2805985 149.456204,18.9697566 149.763638,18.4185402 L150.996662,18.4185835 C150.63749,19.6428288 149.452768,20.4338273 148.184361,20.2962613 C147.318928,20.3191069 146.487199,19.9603867 145.909851,19.3152778 C145.332503,18.670169 145.067903,17.803889 145.186257,16.9462827 C145.071047,16.086293 145.334655,15.2186249 145.908788,14.568066 C146.482921,13.9175071 147.311084,13.5480721 148.178725,13.5554708 Z M92.9181128,14.0175765 C93.9111727,14.6337802 94.4690834,15.7596589 94.3578788,16.9230627 C94.4711422,18.0876822 93.9137266,19.2156841 92.9198106,19.8331776 C91.9258947,20.4506712 90.6676814,20.4506712 89.6737655,19.8331776 C88.6798495,19.2156841 88.1224339,18.0876822 88.2356973,16.9230627 C88.1244927,15.7596589 88.6824034,14.6337802 89.6754633,14.0175765 C90.6685231,13.4013728 91.9250529,13.4013728 92.9181128,14.0175765 Z M118.879387,14.0176906 C119.872373,14.6338848 120.430195,15.759735 120.318905,16.9230627 C120.432313,18.0876405 119.874999,19.2156743 118.881133,19.833195 C117.887266,20.4507157 116.629069,20.4507157 115.635203,19.833195 C114.641336,19.2156743 114.084023,18.0876405 114.19743,16.9230627 C114.08614,15.759735 114.643963,14.6338848 115.636949,14.0176906 C116.629935,13.4014964 117.8864,13.4014964 118.879387,14.0176906 Z M64.7580203,14.0176906 C65.7510065,14.6338848 66.3088292,15.759735 66.1975391,16.9230627 C66.3109466,18.0876405 65.753633,19.2156743 64.7597664,19.833195 C63.7658998,20.4507157 62.5077032,20.4507157 61.5138366,19.833195 C60.51997,19.2156743 59.9626564,18.0876405 60.0760639,16.9230627 C59.9647738,15.759735 60.5225966,14.6338848 61.5155827,14.0176906 C62.5085689,13.4014964 63.7650341,13.4014964 64.7580203,14.0176906 Z M98.6087098,13.5554853 C100.235854,13.5554853 101.153584,14.3655188 101.153584,15.7364933 L101.153584,20.1710088 L99.9205606,20.1710088 L99.9205606,19.258914 L99.8192199,19.258914 C99.4004363,19.9249955 98.6557028,20.3142828 97.8697488,20.2779419 C97.3187763,20.3352522 96.7692724,20.1568126 96.3570845,19.7867365 C95.9448965,19.4166604 95.7084959,18.8894887 95.7063251,18.3355478 C95.7063251,17.1672691 96.5762031,16.4937593 98.1202827,16.3980399 L99.8783293,16.2966992 L99.8783293,15.7364933 C99.8783293,15.051006 99.4250997,14.663934 98.5496004,14.663934 C97.8345657,14.663934 97.3391048,14.9264454 97.1969309,15.3853106 L95.9568734,15.3853106 C96.087776,14.27052 97.1364091,13.5554853 98.6087098,13.5554853 Z M108.897966,11.1471201 L108.897966,20.17098 L107.670578,20.17098 L107.670578,19.1455669 L107.569237,19.1455669 C107.153243,19.8726181 106.368174,20.3087959 105.531095,20.2779419 C103.880025,20.278014 102.837013,18.9788038 102.837013,16.9230627 C102.837013,14.8722509 103.891281,13.5730696 105.53108,13.5730696 C106.359097,13.5349175 107.134612,13.978595 107.52137,14.7117288 L107.61709,14.7117288 L107.61709,11.1471201 L108.897966,11.1471201 Z M134.787214,12.064865 L134.787214,13.7102997 L136.193372,13.7102997 L136.193372,14.7892009 L134.787214,14.7892009 L134.787214,18.1265246 C134.787214,18.8063762 135.067324,19.1040707 135.704944,19.1040707 C135.868184,19.1035483 136.03126,19.0936782 136.193372,19.0745088 L136.193372,20.1414325 C135.963347,20.1825838 135.730291,20.2044768 135.496627,20.2068838 C134.072179,20.2068838 133.504925,19.7057873 133.504925,18.4544728 L133.504925,14.7891432 L132.474597,14.7891432 L132.474597,13.710242 L133.504925,13.710242 L133.504925,12.064865 L134.787214,12.064865 Z M57.555276,12.7497063 C58.3391767,13.5775035 58.7105461,14.7132059 58.5671675,15.8442191 C58.5671675,18.591775 57.0821973,20.1711241 54.5204303,20.1711241 L51.4139517,20.1711241 L51.4139517,11.5708743 L54.5204303,11.5708743 C55.6575711,11.4892716 56.7713754,11.9219091 57.555276,12.7497063 Z M86.455137,11.1471201 L86.455137,20.17098 L85.1742607,20.17098 L85.1742607,11.1471201 L86.455137,11.1471201 Z M80.886834,13.5554564 C81.5265252,13.5073614 82.1533774,13.7527614 82.590399,14.2223678 C83.0274206,14.6919742 83.2271867,15.3348259 83.1332933,15.969414 L83.1332933,20.1709223 L81.852417,20.1709223 L81.852417,16.2910636 C81.852417,15.2480661 81.3991874,14.7293708 80.451895,14.7293708 C80.0180022,14.709162 79.5969207,14.8794469 79.2990452,15.1955823 C79.0011697,15.5117176 78.8562083,15.9421741 78.9021654,16.3740992 L78.9021654,20.1709944 L77.6212891,20.1709944 L77.6212891,13.6807378 L78.8543128,13.6807378 L78.8543128,14.7117721 L78.9500323,14.7117721 C79.2828881,13.9526581 80.060676,13.4883007 80.886834,13.5554564 Z M68.4214991,13.6807378 L69.5841422,18.6331847 L69.6798617,18.6331847 L71.0142261,13.6807378 L72.2430268,13.6807378 L73.5773913,18.6331847 L73.678732,18.6331847 L74.8357394,13.6807378 L76.1166158,13.6807378 L74.3346429,20.1709944 L73.0059141,20.1709944 L71.6645159,15.3909174 L71.5631752,15.3909174 L70.2273982,20.1709944 L68.9113244,20.1709944 L67.1223178,13.6807378 L68.4214991,13.6807378 Z M125.303076,13.5554564 C125.942767,13.5073614 126.56962,13.7527614 127.006641,14.2223678 C127.443663,14.6919742 127.643429,15.3348259 127.549536,15.969414 L127.549536,20.1709223 L126.268659,20.1709223 L126.268659,16.2910636 C126.268659,15.2480661 125.81543,14.7293708 124.868137,14.7293708 C124.434244,14.709162 124.013163,14.8794469 123.715287,15.1955823 C123.417412,15.5117176 123.27245,15.9421741 123.318408,16.3740992 L123.318408,20.1709944 L122.037531,20.1709944 L122.037531,13.6807378 L123.270555,13.6807378 L123.270555,14.7117721 L123.366275,14.7117721 C123.69913,13.9526581 124.476918,13.4883007 125.303076,13.5554564 Z M139.212577,11.1471201 L139.212577,14.7237352 L139.313918,14.7237352 C139.662762,13.9579776 140.454162,13.4930284 141.292878,13.5610921 C141.928937,13.5264816 142.547304,13.7772841 142.979549,14.2451868 C143.411794,14.7130894 143.612896,15.3493573 143.528081,15.9806853 L143.528081,20.1709944 L142.245922,20.1709944 L142.245922,16.2966704 C142.245922,15.2600004 141.763073,14.7349777 140.858069,14.7349777 C140.412448,14.6984305 139.973416,14.8604333 139.658344,15.1776761 C139.343271,15.4949189 139.184286,15.9350529 139.223891,16.3804123 L139.223891,20.1709944 L137.943015,20.1709944 L137.942957,11.1471201 L139.212577,11.1471201 Z M99.8783293,17.238356 L98.2934165,17.3396966 C97.3996123,17.3995123 96.9942352,17.7035487 96.9942352,18.2757178 C96.9942352,18.8598499 97.500953,19.1997758 98.1977547,19.1997758 C98.6102464,19.2415312 99.0220235,19.1140953 99.3388216,18.8466409 C99.6556196,18.5791865 99.8503119,18.194615 99.8783293,17.7809631 L99.8783293,17.238356 Z M91.2985465,14.6934959 C90.1851684,14.6934959 89.5588482,15.5162132 89.5588482,16.9230771 C89.5588482,18.3411979 90.1852116,19.1575733 91.2985465,19.1575733 C92.4077015,19.1575733 93.0397006,18.3355478 93.0397006,16.9230627 C93.0397006,15.5162132 92.407687,14.6934959 91.2985465,14.6934959 Z M63.1389131,14.6934959 C62.025535,14.6934959 61.3992147,15.5162132 61.3992147,16.9230771 C61.3992147,18.3411979 62.0255782,19.1575733 63.1389131,19.1575733 C64.2480825,19.1575733 64.8800672,18.3355478 64.8800672,16.9230627 C64.8800672,15.5162132 64.2480536,14.6934959 63.1389131,14.6934959 Z M117.260279,14.6934959 C116.146901,14.6934959 115.520581,15.5162132 115.520581,16.9230771 C115.520581,18.3411979 116.146944,19.1575733 117.260279,19.1575733 C118.369434,19.1575733 119.001419,18.3355478 119.001419,16.9230627 C119.001419,15.5162132 118.36942,14.6934959 117.260279,14.6934959 Z M105.894284,14.7237496 C104.816046,14.7237496 104.16012,15.5577238 104.16012,16.9230627 C104.160164,18.2996584 104.809055,19.1280114 105.894284,19.1280114 C106.973848,19.1280114 107.641059,18.2877097 107.641059,16.9286983 C107.641059,15.5760288 106.966843,14.7237496 105.894284,14.7237496 Z M54.3712227,12.7862273 L52.7497143,12.7862273 L52.7497143,18.9548631 L54.3712227,18.9548631 C55.1838822,19.0034392 55.9751705,18.6832554 56.5253764,18.0832149 C57.0755823,17.4831743 57.3261293,16.667159 57.2074498,15.8617458 C57.3174948,15.059675 57.0633397,14.2503934 56.514498,13.6552462 C55.9656563,13.0600989 55.1795636,12.7413674 54.3712227,12.7862273 Z M33.3695903,11.5554087 C33.5091336,13.3775985 32.9328735,15.1824158 31.7631872,16.5865817 C30.6283707,17.9980337 28.908881,18.8110271 27.0978985,18.7923808 C26.9827277,17.0226488 27.5757588,15.2797166 28.7463744,13.9474723 C29.9318631,12.5971805 31.5825696,11.7431008 33.3695903,11.5554087 Z M148.171648,14.6456289 C147.724101,14.6400061 147.293249,14.815363 146.976829,15.1319213 C146.660409,15.4484796 146.485241,15.8794076 146.49106,16.326953 L149.769231,16.326953 C149.801881,15.8864798 149.647003,15.4527006 149.342762,15.1325125 C149.038522,14.8123245 148.613214,14.6355053 148.171648,14.6456289 Z" transform="translate(-386.000000, -278.000000) translate(284.000000, 136.000000) translate(102.500000, 142.000000) translate(2.500000, 2.500000)"/></g></svg>