<?xml version="1.0" standalone="no"?>
<!DOCTYPE svg PUBLIC "-//W3C//DTD SVG 20010904//EN"
 "http://www.w3.org/TR/2001/REC-SVG-20010904/DTD/svg10.dtd">
<svg version="1.0" xmlns="http://www.w3.org/2000/svg"
 width="136.000000pt" height="136.000000pt" viewBox="0 0 136.000000 136.000000"
 preserveAspectRatio="xMidYMid meet">

<g transform="translate(0.000000,136.000000) scale(0.100000,-0.100000)"
fill="#000000" stroke="none">
<path d="M0 680 l0 -680 680 0 680 0 0 680 0 680 -680 0 -680 0 0 -680z m650
621 c-13 -25 -331 -555 -335 -559 -2 -2 -16 20 -30 49 -50 98 -42 221 18 277
21 20 347 252 354 252 2 0 -1 -9 -7 -19z m262 -112 c106 -73 208 -146 226
-163 46 -43 87 -111 106 -175 23 -80 21 -232 -4 -307 -26 -75 -40 -90 -40 -42
0 60 -25 112 -151 311 -123 193 -299 457 -327 490 -8 9 -12 17 -9 17 4 0 93
-59 199 -131z m-720 -409 c25 -58 275 -448 458 -713 8 -12 -70 36 -175 107
-315 212 -360 275 -360 501 0 106 3 126 25 175 l25 55 6 -45 c4 -25 13 -61 21
-80z m933 -211 c45 -88 43 -181 -7 -244 -18 -23 -223 -163 -371 -254 l-38 -23
18 29 c102 167 359 551 365 547 5 -3 20 -28 33 -55z"/>
</g>
</svg>
